<svg xmlns="http://www.w3.org/2000/svg" width="158.685" height="52.33" viewBox="0 0 158.685 52.33">
  <g id="Group_292" data-name="Group 292" transform="translate(256.567 -985.077)" opacity="0.57">
    <path id="Path_748" data-name="Path 748" d="M-226.665,1003.648c2.913,0,5.827.013,8.74-.012.477,0,.649.128.71.6,1.225,9.48-3.43,18.463-13.647,20.862a20.284,20.284,0,0,1-18.008-3.982,19.685,19.685,0,0,1-7.5-13.071c-1.533-10.886,6.265-20.69,16.5-22.571a19.443,19.443,0,0,1,17.412,4.841c.349.315.313.468.01.763-1.069,1.038-2.127,2.089-3.159,3.164-.308.32-.5.292-.806.017A14.114,14.114,0,0,0-237.3,990.7a14.425,14.425,0,0,0-12.946,11.907,14.513,14.513,0,0,0,4.333,13.558,13.735,13.735,0,0,0,9.432,3.914,14.17,14.17,0,0,0,9.365-2.813,11.194,11.194,0,0,0,4.247-7.37c.089-.518-.053-.678-.6-.675-3.959.023-7.917,0-11.876.025-.558,0-.714-.156-.7-.707.038-1.423.034-2.848,0-4.272-.011-.5.137-.635.637-.631C-232.491,1003.66-229.578,1003.648-226.665,1003.648Z" transform="translate(0 0)" fill="#a0a0a0"/>
    <path id="Path_749" data-name="Path 749" d="M498.31,1116.033a8.627,8.627,0,0,1-4.647,2.778,11.337,11.337,0,0,1-10.227-2.717,13.217,13.217,0,0,1,4.21-22.523,9.73,9.73,0,0,1,9.64,1.419c.329.252.619.554,1.048.943,0-.649.014-1.169,0-1.687-.012-.347.061-.529.47-.523,1.534.02,3.069.016,4.6,0,.358,0,.482.144.457.474,0,.066,0,.133,0,.2,0,7.588.015,15.176-.011,22.764a17.914,17.914,0,0,1-.873,5.836,10.7,10.7,0,0,1-8.244,7.438,12.653,12.653,0,0,1-11.336-2.5,13.1,13.1,0,0,1-3.341-4.28c-.225-.444-.14-.638.328-.819,1.282-.5,2.552-1.028,3.809-1.586.466-.206.7-.2.937.329a6.745,6.745,0,0,0,2.34,2.84,6.835,6.835,0,0,0,4.4,1.217c2.513-.189,4.542-1.152,5.675-3.549A7.924,7.924,0,0,0,498.3,1119C498.34,1118.078,498.31,1117.149,498.31,1116.033Zm.435-10.3a7.209,7.209,0,0,0-.308-2.151c-.779-2.652-2.346-4.613-5.119-5.26a6.675,6.675,0,0,0-6.949,2.456,8.478,8.478,0,0,0,.836,11.411,6.764,6.764,0,0,0,9.334-.283A8.3,8.3,0,0,0,498.745,1105.729Z" transform="translate(-637.105 -93.418)" fill="#a0a0a0"/>
    <path id="Path_750" data-name="Path 750" d="M68.882,1119.348a13.073,13.073,0,1,1,13.133-13A12.922,12.922,0,0,1,68.882,1119.348Zm-7.339-13.067a12.354,12.354,0,0,0,.21,1.951,7.23,7.23,0,0,0,5.434,5.724,6.849,6.849,0,0,0,7.239-2.4,8.6,8.6,0,0,0,.693-9.573,7.188,7.188,0,0,0-9.01-3.042A7.766,7.766,0,0,0,61.543,1106.281Z" transform="translate(-270.621 -93.68)" fill="#a0a0a0"/>
    <path id="Path_751" data-name="Path 751" d="M280.609,1119.438a13.054,13.054,0,1,1,13.129-13.038A12.863,12.863,0,0,1,280.609,1119.438Zm7.375-13.181a6.988,6.988,0,0,0-.15-1.63,7.286,7.286,0,0,0-11.388-4.8,8.3,8.3,0,0,0-2.939,8.685,7.3,7.3,0,0,0,9.839,5.265A7.772,7.772,0,0,0,287.984,1106.256Z" transform="translate(-454.101 -93.792)" fill="#a0a0a0"/>
    <path id="Path_752" data-name="Path 752" d="M751.628,1105.18a12.16,12.16,0,0,1,6.346-10.628,11.511,11.511,0,0,1,15.986,4.374,26.47,26.47,0,0,1,1.617,3.5c.193.459-.121.471-.375.577l-13.763,5.709c-.881.365-1.755.748-2.646,1.083-.453.17-.487.338-.25.76,2.392,4.268,7.848,4.115,10.536,1.913a8.926,8.926,0,0,0,1.61-1.681c.224-.311.385-.407.738-.163,1.188.821,2.384,1.632,3.607,2.4.465.291.324.506.08.82a12.766,12.766,0,0,1-8.834,5.168,12.629,12.629,0,0,1-11.1-3.823C752.717,1112.638,751.619,1109.508,751.628,1105.18Zm5.712.442c.193-.07.337-.116.477-.174,3.524-1.462,7.042-2.938,10.576-4.375.6-.243.545-.49.232-.909a5.2,5.2,0,0,0-4.8-2.084A7.129,7.129,0,0,0,757.34,1105.622Z" transform="translate(-873.519 -93.461)" fill="#a0a0a0"/>
    <path id="Path_753" data-name="Path 753" d="M697.261,1015.226c0,6.118-.014,12.237.019,18.355,0,.706-.206.842-.852.82-1.4-.048-2.8-.033-4.2,0-.467.01-.6-.132-.6-.6.019-3.048.009-6.1.009-9.144q0-13.85,0-27.7c0-1.024-.075-.87.9-.875,1.356-.008,2.714.025,4.069-.015.539-.016.663.157.661.673Q697.246,1005.982,697.261,1015.226Z" transform="translate(-821.534 -9.519)" fill="#a0a0a0"/>
  </g>
</svg>
