<svg xmlns="http://www.w3.org/2000/svg" width="100.185" height="32.961" viewBox="0 0 100.185 32.961">
  <g id="Group_242" data-name="Group 242" transform="translate(-124.125 -7.345)" opacity="0.33">
    <path id="Path_731" data-name="Path 731" d="M145.851,10.856,143.4,13.307c-.315-.252-.627-.521-.958-.762a9.2,9.2,0,0,0-12.918,2.314,9.121,9.121,0,0,0-1.506,6.6,9.352,9.352,0,0,0,13.715,6.828,7.059,7.059,0,0,0,3.659-5.341c.018-.12.035-.241.056-.385h-8.335V19.07h11.765a11.335,11.335,0,0,1,.172,2.4,12.3,12.3,0,0,1-1.074,4.985,10.533,10.533,0,0,1-7.157,5.97,12.873,12.873,0,0,1-13.22-3.658,11.906,11.906,0,0,1-3.45-9.3,12.446,12.446,0,0,1,6.075-10.136,12.662,12.662,0,0,1,8.246-1.923A12.059,12.059,0,0,1,145.851,10.856Z" transform="translate(0 0)" fill="#425f6f"/>
    <path id="Path_732" data-name="Path 732" d="M387.592,64.908l3.128-1.3c.191.323.356.642.557.936a4.536,4.536,0,0,0,6.326,1.191,3.7,3.7,0,0,0,1.237-1.565,8.61,8.61,0,0,0,.455-3.708,1.588,1.588,0,0,0-.219.159,5.446,5.446,0,0,1-3.579,1.716A7.982,7.982,0,0,1,387.433,57a8.334,8.334,0,0,1,4.3-10.386,6.679,6.679,0,0,1,5.583-.194,4.937,4.937,0,0,1,1.758,1.221,1.545,1.545,0,0,0,.214.154V46.43h3.448v.24q0,7.206,0,14.411a11.077,11.077,0,0,1-.7,4.2,6.739,6.739,0,0,1-5.308,4.3,8.225,8.225,0,0,1-5.286-.606A8,8,0,0,1,387.592,64.908Zm11.959-10.739a5.6,5.6,0,0,0-.423-2.214,4.257,4.257,0,0,0-6.777-1.773,5.341,5.341,0,0,0-.416,7.561,4.288,4.288,0,0,0,6.5-.2A5.242,5.242,0,0,0,399.552,54.169Z" transform="translate(-200.811 -29.46)" fill="#425f6f"/>
    <path id="Path_733" data-name="Path 733" d="M235.753,54.191a8.267,8.267,0,1,1,8.283,8.226A8.131,8.131,0,0,1,235.753,54.191Zm12.917,0a5.459,5.459,0,0,0-.342-1.955,4.557,4.557,0,0,0-7.7-1.515,5.387,5.387,0,0,0-.087,6.806,4.5,4.5,0,0,0,6.241.69A4.95,4.95,0,0,0,248.67,54.192Z" transform="translate(-85.294 -29.494)" fill="#425f6f"/>
    <path id="Path_734" data-name="Path 734" d="M311.382,54.159a8.264,8.264,0,1,1,8.224,8.256A8.123,8.123,0,0,1,311.382,54.159Zm12.917.169a5.984,5.984,0,0,0-.359-2.126,4.561,4.561,0,0,0-7.681-1.49,5.369,5.369,0,0,0,.067,7,4.481,4.481,0,0,0,5.735.751A4.848,4.848,0,0,0,324.3,54.328Z" transform="translate(-143.082 -29.494)" fill="#425f6f"/>
    <path id="Path_735" data-name="Path 735" d="M488.581,56.7a4.2,4.2,0,0,0,3.935,2.491,4.715,4.715,0,0,0,4.115-2.276l2.832,1.887c-.33.388-.625.786-.97,1.134a8.2,8.2,0,0,1-14.058-4.949,8.5,8.5,0,0,1,1.474-5.787,7.306,7.306,0,0,1,5.563-3.19,7.106,7.106,0,0,1,6.981,3.641,14.486,14.486,0,0,1,1.14,2.493Zm6.756-5.8a1.272,1.272,0,0,0-.061-.162,2.636,2.636,0,0,0-.176-.295,3.121,3.121,0,0,0-2.375-1.262,4.22,4.22,0,0,0-3.947,1.926,4.518,4.518,0,0,0-.794,2.843Z" transform="translate(-275.283 -29.519)" fill="#425f6f"/>
    <path id="Path_736" data-name="Path 736" d="M466.547,35.487h-3.5V11.371h3.5Z" transform="translate(-258.967 -3.076)" fill="#425f6f"/>
  </g>
</svg>
