<svg xmlns="http://www.w3.org/2000/svg" width="157.716" height="38.606" viewBox="0 0 157.716 38.606">
  <g id="Group_241" data-name="Group 241" transform="translate(-125.941 -138.712)" opacity="0.33">
    <path id="Path_719" data-name="Path 719" d="M155.809,174.132c-.16-.1-.325-.2-.479-.311q-4.065-2.959-8.126-5.922-1.231-.9-2.463-1.791c-.3-.216-.324-.222-.622-.007q-1.658,1.2-3.309,2.4l-7.122,5.175c-.246.179-.491.359-.8.585.046-.172.068-.275.1-.373q1.545-4.739,3.091-9.477.543-1.665,1.082-3.332c.122-.377.124-.39-.2-.626q-1.834-1.345-3.675-2.679-3.407-2.48-6.814-4.961c-.184-.134-.355-.285-.533-.428l.031-.095c.174-.006.348-.017.522-.016l12.775.012c.768,0,.7.061.949-.69q1.9-5.85,3.808-11.7c.12-.368.234-.738.376-1.187.07.166.118.259.15.356q1.924,5.931,3.846,11.863c.107.331.2.665.318.993s.152.355.515.365c.125,0,.251,0,.376,0h13.351l.032.075-11.356,8.27c.049.168.086.313.132.454.265.82.56,1.63.792,2.459.964,3.44,2.174,6.8,3.241,10.208.032.1.052.21.077.315Z" transform="translate(0)" fill="#425f6f"/>
    <path id="Path_720" data-name="Path 720" d="M498.846,216.547v6.99a17.212,17.212,0,0,1-3.088.057c-.081-.293-.109-18.935-.029-19.542a17.3,17.3,0,0,1,2.944-.015v1.793l.074.018a2.263,2.263,0,0,0,.136-.181,3.875,3.875,0,0,1,2.338-1.77,6.509,6.509,0,0,1,6.371,1.278,6.12,6.12,0,0,1,1.8,2.908,10.183,10.183,0,0,1-.2,6.828,5.8,5.8,0,0,1-2.753,3.175,5.348,5.348,0,0,1-2.195.6,6.936,6.936,0,0,1-3.188-.481,4.756,4.756,0,0,1-1.944-1.464c-.058-.075-.122-.147-.183-.22ZM506.721,211a6.149,6.149,0,0,0-.512-2.469,3.974,3.974,0,0,0-1.889-2.091,3.688,3.688,0,0,0-5,1.767,5.614,5.614,0,0,0-.243.62,7.935,7.935,0,0,0-.278,3.3,5.668,5.668,0,0,0,.525,1.877,3.783,3.783,0,0,0,4.119,2.166,3.621,3.621,0,0,0,2.735-2.156A6.775,6.775,0,0,0,506.721,211Z" transform="translate(-264.001 -46.316)" fill="#425f6f"/>
    <path id="Path_721" data-name="Path 721" d="M594.1,211.118a10.157,10.157,0,0,1,.55-3.077,6.334,6.334,0,0,1,4.226-4.119,8.018,8.018,0,0,1,5.047.02,6.336,6.336,0,0,1,4.243,4.315,9.144,9.144,0,0,1-.055,5.862,6.4,6.4,0,0,1-5.273,4.429,7.906,7.906,0,0,1-4.236-.338,6.515,6.515,0,0,1-4.241-5.071C594.223,212.477,594.187,211.793,594.1,211.118Zm3.19-.042a6.408,6.408,0,0,0,.719,3.078,3.757,3.757,0,0,0,4.819,1.746,3.832,3.832,0,0,0,2.182-2.339,6.691,6.691,0,0,0,.409-3.153,5.894,5.894,0,0,0-.638-2.272,3.747,3.747,0,0,0-2.251-1.924,3.815,3.815,0,0,0-4.688,2.175A6.736,6.736,0,0,0,597.293,211.076Z" transform="translate(-334.275 -46.277)" fill="#425f6f"/>
    <path id="Path_722" data-name="Path 722" d="M411.025,213.8h3.138a.92.92,0,0,1,.07.189,2.394,2.394,0,0,0,2.014,2.113,5.677,5.677,0,0,0,3.126-.146,2.4,2.4,0,0,0,.662-.344,1.463,1.463,0,0,0,.107-2.286,2.7,2.7,0,0,0-1.122-.623c-.926-.244-1.864-.444-2.791-.685-.766-.2-1.535-.395-2.28-.657a3.828,3.828,0,0,1-2.024-1.536,3.725,3.725,0,0,1,1.183-5.183,6.733,6.733,0,0,1,2.66-.916,9.434,9.434,0,0,1,4.052.215A4.654,4.654,0,0,1,423,206.672a3.535,3.535,0,0,1,.3,1.319h-3.232c-.051-.149-.1-.306-.159-.46a1.78,1.78,0,0,0-1.06-1.108,4.777,4.777,0,0,0-3.426-.026,1.232,1.232,0,0,0-.907,1.3,1.1,1.1,0,0,0,.507.913,4.907,4.907,0,0,0,1.185.59c.92.262,1.862.451,2.794.67a12.049,12.049,0,0,1,2.654.847,4.153,4.153,0,0,1,1.285.982,3.646,3.646,0,0,1,.808,2.965,4.005,4.005,0,0,1-2.125,3.069,7.359,7.359,0,0,1-2.917.937,9.527,9.527,0,0,1-4.366-.383,4.677,4.677,0,0,1-2.95-2.645A5.314,5.314,0,0,1,411.025,213.8Z" transform="translate(-203.555 -46.336)" fill="#425f6f"/>
    <path id="Path_723" data-name="Path 723" d="M275.976,205.693V188.905c-.53-.024-1.04-.009-1.548-.011-.529,0-1.058,0-1.586,0h-3.106v-2.961H285.7v2.944h-6.253c-.053,1.144-.018,2.25-.024,3.355-.007,1.126,0,2.254,0,3.38v10.081Z" transform="translate(-102.672 -33.716)" fill="#425f6f"/>
    <path id="Path_724" data-name="Path 724" d="M368.775,205.1H371.9v14.231a16.85,16.85,0,0,1-3.056.013V217.4c-.125.146-.187.207-.236.277a4.709,4.709,0,0,1-3.955,2.111,7.008,7.008,0,0,1-2.384-.336,3.759,3.759,0,0,1-2.359-2.148,6.973,6.973,0,0,1-.552-2.8c-.02-3.045-.01-6.091-.01-9.136,0-.081.014-.161.023-.266H362.5v.514c0,2.74-.01,5.479.009,8.219a7.67,7.67,0,0,0,.195,1.69,2.158,2.158,0,0,0,1.794,1.71,3.837,3.837,0,0,0,2.636-.333,3.023,3.023,0,0,0,1.546-2.347,9.274,9.274,0,0,0,.094-1.412c.009-2.5,0-5.006,0-7.509Z" transform="translate(-166.655 -47.398)" fill="#425f6f"/>
    <path id="Path_725" data-name="Path 725" d="M467.091,206.221v2.4c-.512.051-1.005.11-1.5.147a8.2,8.2,0,0,1-2.161-.127,2.457,2.457,0,0,1-2.179-2.2,9.7,9.7,0,0,1-.128-1.577c-.013-2.546-.006-5.091-.006-7.637v-.556c-.794-.045-1.568.005-2.369-.03V194.3h2.335c.026-1.459,0-2.87.017-4.307h3.113c.024.7.008,1.4.011,2.106s0,1.413,0,2.178h2.831v2.346h-2.808c-.009.183-.022.318-.022.453q0,3.61,0,7.22a7.292,7.292,0,0,0,.065.957,1.016,1.016,0,0,0,1,.992,10.851,10.851,0,0,0,1.247.019C466.715,206.265,466.891,206.238,467.091,206.221Z" transform="translate(-237.63 -36.617)" fill="#425f6f"/>
    <path id="Path_726" data-name="Path 726" d="M656.586,206.207v2.387c-.246.032-.489.065-.732.1a9.26,9.26,0,0,1-2.826-.042,4.482,4.482,0,0,1-.643-.171,2.254,2.254,0,0,1-1.6-1.814,10.479,10.479,0,0,1-.173-1.78c-.018-2.559-.008-5.118-.008-7.677v-.55h-2.369v-2.377h2.336v-4.3h3.134v4.284h2.843c.009.8.012,1.555,0,2.348h-2.794a3.467,3.467,0,0,0-.038.351q0,3.713,0,7.426a6.971,6.971,0,0,0,.059.831,1.027,1.027,0,0,0,.98,1.014,10.067,10.067,0,0,0,1.247.024C656.182,206.255,656.361,206.227,656.586,206.207Z" transform="translate(-372.929 -36.604)" fill="#425f6f"/>
    <path id="Path_727" data-name="Path 727" d="M574.765,185.916h3.043V205.7c-1.016.019-2.023.007-3.02.008C574.693,205.368,574.676,186.374,574.765,185.916Z" transform="translate(-320.426 -33.704)" fill="#425f6f"/>
    <path id="Path_728" data-name="Path 728" d="M326.371,218.313h-3.063c-.082-.324-.107-13.683-.023-14.283.943-.01,1.9,0,2.893,0v2.636a4.9,4.9,0,0,1,5.417-2.964v3.016c-.19-.017-.377-.029-.563-.051a4.446,4.446,0,0,0-1.779.093,3.752,3.752,0,0,0-2.474,2.411,6.535,6.535,0,0,0-.408,2.454q0,3.109,0,6.219Z" transform="translate(-140.87 -46.356)" fill="#425f6f"/>
    <path id="Path_729" data-name="Path 729" d="M556.971,219.382h-3.1V205.1h3.1Z" transform="translate(-305.551 -47.406)" fill="#425f6f"/>
    <path id="Path_730" data-name="Path 730" d="M556.884,185.917a1.364,1.364,0,0,1,.029.184c0,.9,0,1.806,0,2.7a16.845,16.845,0,0,1-3.08.061,15.907,15.907,0,0,1-.018-2.947Z" transform="translate(-305.468 -33.705)" fill="#425f6f"/>
  </g>
</svg>
