<svg xmlns="http://www.w3.org/2000/svg" width="173.998" height="80.519" viewBox="0 0 173.998 80.519">
  <g id="Group_293" data-name="Group 293" transform="translate(130.537 -1505.344)" opacity="0.57">
    <path id="Path_754" data-name="Path 754" d="M-125.778,1585.373c.371-6.208.734-12.278,1.1-18.348,2.23,4.91,3.636,9.887,5.367,14.749.461,1.3,1.919,2.238,2.919,3.343,1.047-1.057,2.564-1.931,3.057-3.2,1.941-5,3.56-10.125,5.3-15.2l.824.169c.3,6.13.609,12.261.91,18.334h5.025c-.534-9.149-1.047-17.953-1.553-26.627-4.607-1.44-7.286-.634-8.418,4.165-1.067,4.52-2.91,8.857-4.743,14.251-1.693-5.445-3.041-9.832-4.423-14.209-1.734-5.494-2.1-5.673-8.405-4.055l-1.714,26.631Zm88.44-23.061,1.146-1.01c-.674-1.081-1.295-3.053-2.032-3.1-4.722-.284-9.47-.145-14.5-.145,0,8.674-.009,16.695.014,24.716a20.578,20.578,0,0,0,.319,2.527h16.331l-.25-4.188H-47.306v-7.683h10.152l-.313-4.2-9.818-.433v-6.481ZM-97.794,1585c4.316,1.82,6.048-.2,6.537-3.873.424-3.188,2.428-3.441,5.093-3.415,2.707.026,5.168-.041,5.58,3.418.5,4.166,2.668,5.407,6.814,3.877-2.745-8.381-5.355-16.7-8.3-24.9-.367-1.022-2.513-1.957-3.821-1.939s-3.408,1-3.778,2.044C-92.531,1568.3-95.059,1576.508-97.794,1585Zm65.42.173c4.167.107,7.919.644,11.539.174,3.642-.473,6-3.1,6.47-6.881.45-3.649-1.351-6.227-4.512-7.88-1.744-.912-3.743-1.439-5.294-2.587-1.06-.785-2.349-2.573-2.083-3.494.32-1.106,2.106-2.307,3.4-2.493,1.861-.267,3.849.343,6.209.63l1.339-4.673c-3.893,0-7.1-.378-10.182.1a7.232,7.232,0,0,0-6.3,6.53c-.5,3.537,1.379,5.925,4.327,7.535,1.6.875,3.567,1.238,4.921,2.367,1.219,1.016,2.74,2.989,2.455,4.121-.3,1.2-2.512,2.511-4.008,2.673-2.267.246-4.638-.459-7.232-.8Zm75.836-26.18c-11.863-4.538-21.6,2.158-21.226,14.154.276,8.938,7.018,13.846,17.158,12.49,3.964-.53,4.071-.719,2.65-4.706-7.98,1.208-12.4-.025-13.606-4.88-2.961-11.924,3.169-15.311,14.044-13.56Zm-34.8-.673H-11.678c.087,1.51.155,2.7.233,4.036l7.622.412v22.8l5.163-.239v-22.639l7.325-.331Zm-112.807-28.752c2.412,7.529-2.786,11.6-6.483,16.981l6.989-2.24,1.382,6.444c2.207-5.2,4.052-10.4,11.778-10.421-7.726-4.325-1.759-8.23-.414-12.471C-95.361,1529.233-98.525,1535.463-104.143,1529.57Zm32.99,55.729c7.889,1.4,12.427-.7,12.8-6.326.45-6.812.107-13.677.107-20.594H-63.2c0,5.95.082,11.561-.025,17.169-.095,4.98-1.069,5.818-6.044,5.837a12.078,12.078,0,0,0-1.646.241C-71,1582.9-71.068,1583.977-71.153,1585.3Zm-6.493-55.906c3.347-4.025,6.779-6.959,12.855-4.03-4.378-5.015-1.615-8.3,1.812-11.634-2.468.141-4.654,1.287-6.445.845-1.87-.462-3.361-2.453-5.922-4.5,1.218,6.949-3.817,8.936-8.962,11.812l6.663,1.332Zm38.423-13.593,6.368-3.055c-5.828-.429-10.062-1.773-11.229-7.4-1.724,2.2-2.671,4.4-4.314,5.24-1.731.886-4.127.476-6.232.633,4.616,2.06,6.283,4.934,3.982,10.325,4.7-5.015,8.55-2.817,12.908.9Zm52.371,42.448v27.3l4.562-.22v-27.081Zm-36.579-32.616c5.515-1.618,8.3,1.992,11.646,5.709-.12-2.266-.19-3.576-.267-5.024H-8.1l-8.455-9.733c-1.936,4.475-5.322.008-8.523.663C-23.152,1519.772-19.958,1521.831-23.43,1525.631ZM13.3,1547.066c-1.374-3.249-2.59-6.152-3.833-9.044-.211-.491-.432-1.177-.834-1.356-2.615-1.163-5.282-2.212-7.318-3.046l.964,6.138,8.035,8.692.582-2.213Z" fill="#a0a0a0"/>
    <path id="Path_755" data-name="Path 755" d="M-125.778,1832.3h-4.759l1.714-26.631c6.3-1.619,6.671-1.44,8.405,4.054,1.381,4.377,2.729,8.764,4.423,14.209,1.833-5.394,3.677-9.731,4.743-14.251,1.132-4.8,3.811-5.605,8.418-4.165.506,8.674,1.019,17.478,1.553,26.627h-5.025c-.3-6.073-.606-12.2-.91-18.334l-.824-.169c-1.739,5.078-3.358,10.2-5.3,15.2-.493,1.271-2.01,2.145-3.057,3.2-1-1.1-2.457-2.047-2.919-3.343-1.731-4.862-3.137-9.839-5.367-14.749C-125.044,1820.024-125.407,1826.095-125.778,1832.3Z" transform="translate(0 -246.93)" fill="#a0a0a0"/>
    <path id="Path_756" data-name="Path 756" d="M328.567,1810.052h-9.948v6.481l9.818.433.313,4.205H318.6v7.683h10.995l.25,4.188H313.512a20.583,20.583,0,0,1-.319-2.528c-.024-8.021-.014-16.042-.014-24.716,5.033,0,9.781-.139,14.5.145.737.044,1.357,2.017,2.032,3.1Z" transform="translate(-365.905 -247.74)" fill="#a0a0a0"/>
    <path id="Path_757" data-name="Path 757" d="M56.183,1833.433c2.736-8.493,5.263-16.7,8.126-24.786.37-1.046,2.467-2.025,3.778-2.044s3.454.917,3.821,1.939c2.944,8.2,5.554,16.517,8.3,24.9-4.147,1.529-6.317.288-6.814-3.877-.412-3.459-2.873-3.392-5.58-3.418-2.665-.026-4.669.227-5.093,3.415C62.231,1833.237,60.5,1835.253,56.183,1833.433Zm11.776-21.947L64.935,1821.8h6.216Z" transform="translate(-153.977 -248.431)" fill="#a0a0a0"/>
    <path id="Path_758" data-name="Path 758" d="M429.248,1832l1.048-4.671c2.595.336,4.965,1.041,7.232.8,1.5-.162,3.707-1.476,4.008-2.673.285-1.131-1.237-3.1-2.455-4.121-1.354-1.128-3.32-1.492-4.921-2.366-2.948-1.61-4.827-4-4.327-7.535a7.231,7.231,0,0,1,6.3-6.53c3.078-.478,6.29-.1,10.182-.1l-1.339,4.673c-2.36-.288-4.348-.9-6.209-.63-1.292.185-3.077,1.386-3.4,2.492-.267.921,1.022,2.71,2.083,3.494,1.551,1.148,3.55,1.674,5.294,2.586,3.161,1.653,4.962,4.231,4.512,7.88-.466,3.779-2.828,6.408-6.47,6.881C437.167,1832.647,433.415,1832.11,429.248,1832Z" transform="translate(-461.623 -246.828)" fill="#a0a0a0"/>
    <path id="Path_759" data-name="Path 759" d="M761.848,1804.581l-.98,3.5c-10.875-1.751-17,1.636-14.044,13.56,1.206,4.855,5.626,6.088,13.606,4.88,1.421,3.987,1.314,4.177-2.65,4.706-10.139,1.355-16.881-3.553-17.158-12.49C740.252,1806.739,749.985,1800.044,761.848,1804.581Z" transform="translate(-718.387 -245.586)" fill="#a0a0a0"/>
    <path id="Path_760" data-name="Path 760" d="M567.617,1807.458v4.039l-7.325.331v22.639l-5.162.239v-22.8l-7.622-.412c-.077-1.339-.146-2.526-.233-4.036Z" transform="translate(-558.953 -249.136)" fill="#a0a0a0"/>
    <path id="Path_761" data-name="Path 761" d="M-10.51,1635.467c5.618,5.893,8.782-.337,13.251-1.708-1.345,4.241-7.312,8.145.414,12.47-7.726.022-9.571,5.219-11.778,10.421L-10,1650.207l-6.989,2.24C-13.3,1647.071-8.1,1643-10.51,1635.467Z" transform="translate(-93.633 -105.897)" fill="#a0a0a0"/>
    <path id="Path_762" data-name="Path 762" d="M208.109,1834.7c.085-1.321.154-2.4.236-3.673a12.04,12.04,0,0,1,1.646-.241c4.975-.02,5.949-.858,6.044-5.838.107-5.608.025-11.22.025-17.169h4.955c0,6.917.343,13.782-.107,20.594C220.536,1833.995,216,1836.1,208.109,1834.7Z" transform="translate(-279.262 -249.4)" fill="#a0a0a0"/>
    <path id="Path_763" data-name="Path 763" d="M139.75,1551.642v-6.174l-6.663-1.332c5.145-2.876,10.179-4.863,8.962-11.812,2.562,2.046,4.052,4.037,5.922,4.5,1.792.442,3.977-.7,6.445-.845-3.426,3.333-6.19,6.619-1.812,11.634C146.529,1544.683,143.1,1547.617,139.75,1551.642Z" transform="translate(-217.396 -22.249)" fill="#a0a0a0"/>
    <path id="Path_764" data-name="Path 764" d="M317.742,1515.8l1.482,6.642c-4.358-3.718-8.2-5.916-12.908-.9,2.3-5.391.634-8.264-3.982-10.325,2.105-.156,4.5.253,6.232-.633,1.643-.841,2.59-3.038,4.314-5.24,1.167,5.628,5.4,6.972,11.229,7.4Z" transform="translate(-356.964)" fill="#a0a0a0"/>
    <path id="Path_765" data-name="Path 765" d="M688.852,1807.035h4.562v27.081l-4.562.22Z" transform="translate(-675.703 -248.787)" fill="#a0a0a0"/>
    <path id="Path_766" data-name="Path 766" d="M472.506,1578.49c3.471-3.8.278-5.86-1.648-8.384,3.2-.656,6.587,3.812,8.523-.663l8.455,9.733h-3.95c.077,1.448.146,2.758.267,5.023C480.8,1580.482,478.022,1576.872,472.506,1578.49Z" transform="translate(-495.936 -52.859)" fill="#a0a0a0"/>
    <path id="Path_767" data-name="Path 767" d="M633.367,1680.042l-2.406-.828-.582,2.213-8.035-8.692-.964-6.138c2.036.834,4.7,1.883,7.318,3.046.4.179.623.865.834,1.356C630.777,1673.889,631.993,1676.792,633.367,1680.042Z" transform="translate(-620.064 -132.975)" fill="#a0a0a0"/>
  </g>
</svg>
