<svg xmlns="http://www.w3.org/2000/svg" width="145.739" height="45.167" viewBox="0 0 145.739 45.167">
  <g id="Group_294" data-name="Group 294" transform="translate(-1218.618 -1707.081)" opacity="0.57">
    <path id="Path_768" data-name="Path 768" d="M1314.741,1746.015l21.048-21.309c-.293-.367-.592-.222-.843-.223-4.4-.011-8.809.011-13.213-.026-.806-.007-1.037.209-.891,1,1.638,8.88-1.488,15.959-8.456,21.36-10.254,7.946-25.594,7.046-35.006-1.884a22.768,22.768,0,0,1-3.42-4.172c-.171-.263-.217-.676-.782-.726,0,1.74-.04,3.455.019,5.166.026.753-.222.915-.933.906-3.121-.038-6.243-.044-9.364,0-.786.012-.988-.216-.984-.989.021-4.613-.008-9.226-.037-13.838,0-.271.215-.689-.206-.8-.313-.084-.437.295-.6.5q-6.184,7.7-12.354,15.418a2.865,2.865,0,0,1-4.337.142q-6.654-7.651-13.287-15.32a2.484,2.484,0,0,0-.819-.779c-.362.217-.192.565-.2.843-.066,4.645-.13,9.29-.16,13.936,0,.648-.132.9-.846.889-3.19-.039-6.381-.035-9.572,0-.664.007-.887-.157-.883-.857q.08-15.71.1-31.421c0-.615.152-.849.811-.843q5.2.044,10.4,0a1.57,1.57,0,0,1,1.3.681q7.025,8.227,14.068,16.437c.787.92.78.928,1.481-.057q5.764-8.088,11.514-16.186a1.843,1.843,0,0,1,1.716-.88q6.086.057,12.173,0c.763-.007,1.029.179,1,.979-.061,1.745-.019,3.494.088,5.3a25.779,25.779,0,0,1,21.677-12.158c9.192-.331,16.808,3.108,22.713,10.715,0-1.532.023-2.756-.011-3.978-.015-.539.149-.736.7-.716,1.039.036,2.08.01,3.121.01h42.877l-21.232,22.09c.312.384.682.21.989.21,5.653.012,11.306.022,16.959-.008.736,0,1.015.121,1,.946-.057,2.982-.031,5.965-.015,8.948,0,.523-.043.817-.7.816q-23.1-.027-46.2-.019A2.477,2.477,0,0,1,1314.741,1746.015Zm-18.686-26.476a12.119,12.119,0,0,0-6.339,1.7c-5.894,3.518-6.672,10.974-1.615,15.487a12.142,12.142,0,0,0,16.855-1.118,9.181,9.181,0,0,0-.257-12.386A11.652,11.652,0,0,0,1296.055,1719.539Z" transform="translate(0)" fill="#a0a0a0"/>
  </g>
</svg>
