<svg xmlns="http://www.w3.org/2000/svg" width="1930.766" height="1229.358" viewBox="0 0 1930.766 1229.358">
  <g id="Group_139" data-name="Group 139" transform="translate(65.71 -802.697)" opacity="0.61">
    <g id="Path_508" data-name="Path 508" transform="matrix(0.985, 0.174, -0.174, 0.985, 1074.134, 1004)" fill="rgba(8,79,220,0.31)" stroke-linecap="round" opacity="0.44">
      <path d="M 278.0060424804688 733.4363403320312 C 256.5184020996094 733.4363403320312 235.2020263671875 731.4437255859375 214.6491241455078 727.513916015625 C 194.6257629394531 723.6852416992188 175.1502990722656 717.986083984375 156.7635803222656 710.57470703125 C 138.6858520507812 703.2879028320312 121.5438461303711 694.3003540039062 105.8135757446289 683.8616333007812 C 90.18221282958984 673.488525390625 75.86593627929688 661.6307983398438 63.26248550415039 648.6177978515625 C 53.01493835449219 638.037353515625 43.81784820556641 626.6005249023438 35.92648315429688 614.6250610351562 C 27.94584846496582 602.5140991210938 21.19248390197754 589.6871948242188 15.8541202545166 576.5005493164062 C 10.41975688934326 563.0769653320312 6.371847629547119 549.0817260742188 3.822757005691528 534.9033813476562 C 1.213393330574036 520.3892822265625 0.1328478306531906 505.4461669921875 0.6112114787101746 490.4892578125 L 7.997665882110596 259.5594482421875 C 8.541938781738281 242.5428924560547 11.10157489776611 225.4819030761719 15.60548400878906 208.8505401611328 C 19.99539375305176 192.6402587890625 26.28402900695801 176.6410827636719 34.29675674438477 161.2976226806641 C 42.16511917114258 146.2306213378906 51.77439498901367 131.6430816650391 62.85784912109375 117.9401702880859 C 73.83730316162109 104.3657150268555 86.35848236083984 91.54080963134766 100.073486328125 79.82171630859375 C 113.7897567749023 68.1014404296875 128.8130340576172 57.39080810546875 144.7258453369141 47.98726272583008 C 160.7922973632812 38.49298858642578 177.9073028564453 30.24817085266113 195.5953063964844 23.48171615600586 C 213.6110229492188 16.58998870849609 232.4072113037109 11.16207885742188 251.461669921875 7.348715782165527 C 271.0133056640625 3.435806512832642 291.0801086425781 1.17562472820282 311.1047668457031 0.6308974623680115 C 314.2970275878906 0.5440792441368103 317.5284729003906 0.4999883472919464 320.7092895507812 0.4999883472919464 C 342.1969299316406 0.4999883472919464 363.5133056640625 2.492624759674072 384.0662231445312 6.42244291305542 C 404.0895690917969 10.25107955932617 423.5651245117188 15.95026111602783 441.9518432617188 23.36162376403809 C 460.0294799804688 30.6484432220459 477.1715698242188 39.63599014282227 492.90185546875 50.07471466064453 C 508.533203125 60.44780731201172 522.8494873046875 72.30553436279297 535.4529418945312 85.31853485107422 C 545.7003784179688 95.89907836914062 554.8974609375 107.335807800293 562.788818359375 119.3112640380859 C 570.7694702148438 131.4222564697266 577.5227661132812 144.2491760253906 582.8612060546875 157.4357147216797 C 588.2954711914062 170.8592681884766 592.3433837890625 184.8546295166016 594.8924560546875 199.0329895019531 C 597.501953125 213.5469818115234 598.5823974609375 228.4900817871094 598.10400390625 243.4469909667969 L 590.7176513671875 474.3768005371094 C 590.1734008789062 491.3933410644531 587.61376953125 508.454345703125 583.10986328125 525.085693359375 C 578.7199096679688 541.2960815429688 572.4312744140625 557.295166015625 564.4185791015625 572.6386108398438 C 556.5502319335938 587.7056274414062 546.94091796875 602.2931518554688 535.8574829101562 615.99609375 C 524.8780517578125 629.5706176757812 512.3568725585938 642.3955078125 498.641845703125 654.1146240234375 C 484.9255676269531 665.8347778320312 469.9023132324219 676.5454711914062 453.9894714355469 685.948974609375 C 437.9230346679688 695.4432373046875 420.8080444335938 703.6881713867188 403.1200256347656 710.4545288085938 C 385.1043090820312 717.3462524414062 366.30810546875 722.774169921875 347.253662109375 726.587646484375 C 327.7020263671875 730.5004272460938 307.6352233886719 732.7607421875 287.6105651855469 733.305419921875 C 284.4183044433594 733.3922729492188 281.1868591308594 733.4363403320312 278.0060424804688 733.4363403320312 Z" stroke="none"/>
      <path d="M 320.7090148925781 0.9998779296875 C 317.5334777832031 0.9998779296875 314.3067626953125 1.04388427734375 311.1183166503906 1.130615234375 C 291.1220397949219 1.67462158203125 271.0836791992188 3.931640625 251.5597534179688 7.8389892578125 C 232.5326538085938 11.64691162109375 213.7635803222656 17.0670166015625 195.7740173339844 23.94873046875 C 178.1120300292969 30.7052001953125 161.0225830078125 38.937744140625 144.980224609375 48.41778564453125 C 129.0922241210938 57.806640625 114.0926513671875 68.5003662109375 100.3983154296875 80.2017822265625 C 86.70648193359375 91.90106201171875 74.20684814453125 104.7039184570312 63.24658203125 118.254638671875 C 52.18402099609375 131.9318237304688 42.593017578125 146.491455078125 34.73992919921875 161.5291748046875 C 26.74395751953125 176.8405151367188 20.46856689453125 192.8057861328125 16.088134765625 208.9812622070312 C 11.59429931640625 225.5752563476562 9.04046630859375 242.5975341796875 8.49737548828125 259.575439453125 L 1.1109619140625 490.5052490234375 C 0.6336669921875 505.42724609375 1.711669921875 520.335205078125 4.31494140625 534.8148193359375 C 6.85784912109375 548.9593505859375 10.896240234375 562.9212646484375 16.31756591796875 576.3128662109375 C 21.6436767578125 589.468994140625 28.3814697265625 602.2665405273438 36.34405517578125 614.3499755859375 C 44.21832275390625 626.2994384765625 53.395751953125 637.7117919921875 63.62164306640625 648.27001953125 C 76.20013427734375 661.2572021484375 90.48858642578125 673.091796875 106.0900268554688 683.445068359375 C 121.7922058105469 693.8650512695312 138.9041137695312 702.8367919921875 156.9505615234375 710.1109619140625 C 175.3072204589844 717.5103759765625 194.7514953613281 723.2002563476562 214.7430419921875 727.0228271484375 C 235.2651062011719 730.9467163085938 256.5498352050781 732.9363403320312 278.0061340332031 732.9363403320312 C 281.1817626953125 732.9363403320312 284.4085693359375 732.892333984375 287.5970153808594 732.8056030273438 C 307.5932922363281 732.2615966796875 327.6316528320312 730.004638671875 347.1555786132812 726.0973510742188 C 366.1826782226562 722.2894287109375 384.9517517089844 716.8692626953125 402.9412841796875 709.987548828125 C 420.6033020019531 703.231201171875 437.6927490234375 694.99853515625 453.735107421875 685.5185546875 C 469.6231079101562 676.129638671875 484.6226806640625 665.4359130859375 498.3170166015625 653.7344360351562 C 512.0088500976562 642.03515625 524.5084838867188 629.2323608398438 535.46875 615.681640625 C 546.5313110351562 602.0044555664062 556.122314453125 587.44482421875 563.9754028320312 572.4071655273438 C 571.9713745117188 557.095703125 578.2467651367188 541.1304321289062 582.627197265625 524.9549560546875 C 587.1210327148438 508.3609924316406 589.6748657226562 491.3387145996094 590.2179565429688 474.3608093261719 L 597.6043090820312 243.4309997558594 C 598.0816040039062 228.5090026855469 597.0036010742188 213.60107421875 594.400390625 199.1214599609375 C 591.857421875 184.9769897460938 587.819091796875 171.0150146484375 582.3977661132812 157.6234130859375 C 577.0716552734375 144.4673461914062 570.3338623046875 131.6697998046875 562.3712768554688 119.5863647460938 C 554.4970092773438 107.6369018554688 545.319580078125 96.224609375 535.0936889648438 85.66644287109375 C 522.5151977539062 72.67919921875 508.2267456054688 60.84454345703125 492.6252136230469 50.49127197265625 C 476.9231262207031 40.0712890625 459.8111267089844 31.09942626953125 441.7647705078125 23.82525634765625 C 423.4080200195312 16.42596435546875 403.9637451171875 10.7359619140625 383.9721069335938 6.9134521484375 C 363.4501342773438 2.98956298828125 342.1653137207031 0.9998779296875 320.7090148925781 0.9998779296875 M 320.7090759277344 -6.103515625e-05 C 479.3491821289062 -6.103515625e-05 602.956787109375 107.3709106445312 598.603759765625 243.4629821777344 L 591.2174072265625 474.3927917480469 C 586.7769165039062 613.2218017578125 450.8536682128906 729.36474609375 287.6242065429688 733.8052368164062 C 284.40625 733.892822265625 281.1964721679688 733.9363403320312 278.0060729980469 733.9363403320312 C 119.365966796875 733.9363403320312 -4.241455078125 626.5653076171875 0.11151123046875 490.4732666015625 L 7.4979248046875 259.54345703125 C 11.93841552734375 120.7144165039062 147.8616638183594 4.57159423828125 311.0911254882812 0.1309814453125 C 314.30908203125 0.04345703125 317.5186767578125 -6.103515625e-05 320.7090759277344 -6.103515625e-05 Z" stroke="none" fill="#707070"/>
    </g>
    <g id="Path_507" data-name="Path 507" transform="translate(94.753 1078.087) rotate(-2)" fill="rgba(8,79,220,0.31)" stroke-linecap="round" opacity="0.44">
      <path d="M 302.5004577636719 699.2828979492188 C 301.7495422363281 699.2828979492188 301.0193481445312 699.2805786132812 300.2680969238281 699.2760620117188 C 280.1510925292969 699.1536254882812 260.0345458984375 697.357421875 240.4772644042969 693.9376220703125 C 221.417724609375 690.6048583984375 202.6583557128906 685.6909790039062 184.7202758789062 679.3323364257812 C 167.1087188720703 673.0895385742188 150.1103668212891 665.3919677734375 134.1973571777344 656.45361328125 C 118.4369049072266 647.6009521484375 103.6033630371094 637.4545288085938 90.10881805419922 626.2960815429688 C 76.61599731445312 615.1389770507812 64.35081481933594 602.87841796875 53.65390777587891 589.8548583984375 C 42.85617828369141 576.70849609375 33.56199645996094 562.668701171875 26.02972602844238 548.12548828125 C 18.35936164855957 533.315673828125 12.43808937072754 517.830810546875 8.430543899536133 502.1008605957031 C 4.318816184997559 485.962158203125 2.171907186508179 469.3642272949219 2.049543619155884 452.7683410644531 L 0.5056345462799072 243.3910522460938 C 0.3988163769245148 228.9093322753906 1.836361885070801 214.4071502685547 4.778180122375488 200.2875061035156 C 7.652543544769287 186.4918670654297 12.00845241546631 172.8386077880859 17.72517967224121 159.7069702148438 C 23.34136199951172 146.8059692382812 30.35308837890625 134.2177886962891 38.56563568115234 122.2920532226562 C 46.68590545654297 110.5003280639648 56.09081649780273 99.19469451904297 66.51908874511719 88.68923950195312 C 79.87981414794922 75.22959899902344 95.04590606689453 62.94196319580078 111.5960006713867 52.16769027709961 C 128.2560882568359 41.32187271118164 146.3769073486328 31.9724178314209 165.4550933837891 24.37914657592773 C 184.8785400390625 16.6483268737793 205.3948211669922 10.699782371521 226.4339141845703 6.698600292205811 C 248.0616302490234 2.585509300231934 270.413818359375 0.4999639093875885 292.8697204589844 0.4999639093875885 C 293.6206359863281 0.4999639093875885 294.350830078125 0.5022366642951965 295.1020812988281 0.5067821145057678 C 326.9244384765625 0.700600266456604 358.2659912109375 5.032418251037598 388.256103515625 13.38187313079834 C 417.2691040039062 21.45932769775391 444.6146240234375 33.17305374145508 469.5329895019531 48.19769287109375 C 488.0974426269531 59.39114761352539 505.1427307128906 72.36042022705078 520.1954345703125 86.74514770507812 C 535.3131713867188 101.1920547485352 548.4086303710938 117.055778503418 559.1179809570312 133.8955078125 C 570.0184326171875 151.0356903076172 578.4552001953125 169.2050476074219 584.1939697265625 187.8989562988281 C 590.1027221679688 207.1463317871094 593.17333984375 227.0356903076172 593.3207397460938 247.0145111083984 L 594.8645629882812 456.3917846679688 C 594.9713745117188 470.8735046386719 593.5338134765625 485.3757019042969 590.5919799804688 499.4954223632812 C 587.7176513671875 513.2909545898438 583.3617553710938 526.9442138671875 577.64501953125 540.0759887695312 C 572.02880859375 552.9769897460938 565.01708984375 565.5651245117188 556.8045654296875 577.4907836914062 C 548.6842651367188 589.2825927734375 539.2794799804688 600.5882568359375 528.85107421875 611.0936889648438 C 515.4903564453125 624.5533447265625 500.3242797851562 636.8409423828125 483.774169921875 647.6151733398438 C 467.1140747070312 658.4610595703125 448.9932861328125 667.8104248046875 429.9151916503906 675.4036865234375 C 410.4916381835938 683.134521484375 389.9753723144531 689.0830688476562 368.936279296875 693.084228515625 C 347.3086242675781 697.1973266601562 324.9563598632812 699.2828979492188 302.5004577636719 699.2828979492188 Z" stroke="none"/>
      <path d="M 292.8697204589844 0.99993896484375 C 270.4450988769531 0.99993896484375 248.124267578125 3.08251953125 226.5272827148438 7.18975830078125 C 205.5194396972656 11.18505859375 185.0339050292969 17.12469482421875 165.639892578125 24.84368896484375 C 146.5924377441406 32.4248046875 128.5011901855469 41.75885009765625 111.8688049316406 52.586669921875 C 95.3482666015625 63.3416748046875 80.2098388671875 75.60687255859375 66.8739013671875 89.04144287109375 C 56.466552734375 99.52587890625 47.080810546875 110.808349609375 38.97735595703125 122.5756225585938 C 30.7830810546875 134.4749755859375 23.7869873046875 147.0348510742188 18.18353271484375 159.906494140625 C 12.48052978515625 173.0068969726562 8.135009765625 186.6273193359375 5.26763916015625 200.389404296875 C 2.33306884765625 214.4745178222656 0.89910888671875 228.9410400390625 1.005615234375 243.3874206542969 L 2.5494384765625 452.7647094726562 C 2.67156982421875 469.3202514648438 4.81317138671875 485.8777770996094 8.91497802734375 501.9774169921875 C 12.9132080078125 517.67041015625 18.82073974609375 533.1195068359375 26.4736328125 547.8956298828125 C 33.98992919921875 562.4077758789062 43.2646484375 576.4181518554688 54.040283203125 589.5374755859375 C 64.716796875 602.5363159179688 76.95916748046875 614.7740478515625 90.4273681640625 625.9107055664062 C 103.8989868164062 637.0501708984375 118.7076416015625 647.1796264648438 134.4421691894531 656.0177001953125 C 150.3304443359375 664.942138671875 167.3026428222656 672.627685546875 184.8872680664062 678.861083984375 C 202.7991943359375 685.2103271484375 221.5313720703125 690.1171264648438 240.5633544921875 693.4451293945312 C 260.09326171875 696.8601684570312 280.1819152832031 698.65380859375 300.2711791992188 698.7760620117188 C 301.0267333984375 698.7807006835938 301.7560119628906 698.7828979492188 302.5004577636719 698.7828979492188 C 324.9250793457031 698.7828979492188 347.2459106445312 696.7003173828125 368.8428344726562 692.5930786132812 C 389.8507080078125 688.5977783203125 410.336181640625 682.6581420898438 429.7302856445312 674.9391479492188 C 448.7777099609375 667.3580322265625 466.868896484375 658.0239868164062 483.5013427734375 647.1961669921875 C 500.0219116210938 636.441162109375 515.1603393554688 624.1759643554688 528.4962768554688 610.7413330078125 C 538.9036254882812 600.2569580078125 548.2893676757812 588.9744262695312 556.3927001953125 577.2071533203125 C 564.5870971679688 565.307861328125 571.5831909179688 552.7478637695312 577.1866455078125 539.8763427734375 C 582.8896484375 526.7760009765625 587.2351684570312 513.155517578125 590.1025390625 499.393310546875 C 593.037109375 485.308349609375 594.4710693359375 470.841796875 594.3645629882812 456.3954162597656 L 592.8206176757812 247.0181579589844 C 592.6737060546875 227.0878601074219 589.6104736328125 207.2467041015625 583.7160034179688 188.0456848144531 C 577.9903564453125 169.3945922851562 569.5724487304688 151.2661743164062 558.6961059570312 134.1637573242188 C 548.0083618164062 117.3580322265625 534.9386596679688 101.5256958007812 519.8499755859375 87.10662841796875 C 504.8238220214844 72.74713134765625 487.8078002929688 59.8004150390625 469.2748107910156 48.6258544921875 C 444.3952026367188 33.62457275390625 417.0914306640625 21.92889404296875 388.1220092773438 13.863525390625 C 358.174560546875 5.52587890625 326.8770751953125 1.20025634765625 295.0989990234375 1.00677490234375 C 294.3434448242188 1.00213623046875 293.6141662597656 0.99993896484375 292.8697204589844 0.99993896484375 M 292.8697509765625 0 C 293.6190185546875 0 294.3544616699219 0.002197265625 295.1051025390625 0.00677490234375 C 360.2041625976562 0.40313720703125 420.5375366210938 18.07177734375 469.7911987304688 47.76953125 C 544.3506469726562 92.7252197265625 593.2185668945312 165.353759765625 593.8206176757812 247.0107727050781 L 595.3645629882812 456.3880615234375 C 596.3585205078125 591.1861572265625 465.434814453125 699.7828369140625 302.5004272460938 699.7828369140625 C 301.7511596679688 699.7828369140625 301.0157165527344 699.7806396484375 300.2650756835938 699.7760620117188 C 136.2875366210938 698.7775268554688 2.5479736328125 588.1900634765625 1.5494384765625 452.7720336914062 L 0.005615234375 243.394775390625 C -0.98834228515625 108.5965576171875 129.9353332519531 0 292.8697509765625 0 Z" stroke="none" fill="#defad4"/>
    </g>
    <g id="Rectangle_1784" data-name="Rectangle 1784" transform="translate(592.154 1014.745)" fill="rgba(17,0,255,0.12)" stroke="#707070" stroke-linecap="round" stroke-width="1">
      <rect width="565.631" height="774.39" rx="282.816" stroke="none"/>
      <rect x="0.5" y="0.5" width="564.631" height="773.39" rx="282.316" fill="none"/>
    </g>
  </g>
</svg>
