<svg xmlns="http://www.w3.org/2000/svg" width="318.298" height="42.25" viewBox="0 0 318.298 42.25">
  <g id="Group_291" data-name="Group 291" transform="translate(278.413 -698.476)" opacity="0.57">
    <path id="Path_738" data-name="Path 738" d="M-245.576,698.5c5.365,0,10.731-.064,16.095.02a23.524,23.524,0,0,1,12.156,3.308,19.318,19.318,0,0,1,8.837,12.244,20.649,20.649,0,0,1,.625,4.752,21.262,21.262,0,0,1-15.025,20.744,26.717,26.717,0,0,1-7.57,1.154,57.493,57.493,0,0,1-22.115-4.28,56.628,56.628,0,0,1-10.567-5.326c-1.207-.8-2.333-1.728-3.483-2.613a2.188,2.188,0,0,1-.548-.618.74.74,0,0,1,.618-1.193c.255-.024.513-.018.769-.018q5.226,0,10.452-.005a3.555,3.555,0,0,0,.949-.1.89.89,0,0,0,.384-1.587,3.571,3.571,0,0,0-.864-.539q-6.425-3.139-12.52-6.878a66.019,66.019,0,0,1-8.259-5.846c-.748-.636-1.461-1.316-2.16-2.006a2.393,2.393,0,0,1-.549-.846.835.835,0,0,1,.737-1.158,7.461,7.461,0,0,1,.96-.036q11.83,0,23.662,0a8.975,8.975,0,0,0,1.149-.072.9.9,0,0,0,.808-.718.879.879,0,0,0-.438-.984,4.973,4.973,0,0,0-.855-.43,64.349,64.349,0,0,1-8.3-4.009c-.643-.379-1.253-.815-1.872-1.234a2.963,2.963,0,0,1-.435-.376.778.778,0,0,1-.183-.832.734.734,0,0,1,.679-.5c.233-.023.47-.015.7-.016h16.159Zm2.2,20.808a14.185,14.185,0,0,0,1.879,7.162,14.686,14.686,0,0,0,14.222,7.3,14.1,14.1,0,0,0,8.556-3.959,14.177,14.177,0,0,0,4.311-12.287,13.335,13.335,0,0,0-3.878-8.111,14.223,14.223,0,0,0-13.626-4.064A14.321,14.321,0,0,0-243.379,719.308Z" transform="translate(0 0)" fill="#a0a0a0"/>
    <path id="Path_739" data-name="Path 739" d="M275.964,731.32c-.085,1.531-.029,2.995-.039,4.456s0,2.949,0,4.423v13.308h-6.111c-.13-.463-.185-25.715-.059-26.878.461-.124,10.822-.155,11.607-.027.347,1.073.7,2.165,1.054,3.259q3.015,9.389,6.033,18.777c.071.221.026.582.375.589s.312-.366.381-.582q3.421-10.671,6.821-21.348c.078-.242.164-.481.252-.739h11.294c.133.463.189,25.75.059,26.949h-6.38V731.4c-.418-.078-.436.191-.506.4q-.563,1.7-1.125,3.405-2.909,8.851-5.817,17.7c-.066.2-.149.394-.232.612h-9.986c-.073-.188-.158-.38-.223-.578q-3.423-10.468-6.85-20.936C276.434,731.772,276.461,731.434,275.964,731.32Z" transform="translate(-401.603 -20.548)" fill="#a0a0a0"/>
    <path id="Path_740" data-name="Path 740" d="M441.143,744.383v9.159h-6.5V726.588c.226-.013.433-.034.64-.034q9.65,0,19.3,0a11.145,11.145,0,0,1,3.6.544,7.694,7.694,0,0,1,5.174,5.264,9.837,9.837,0,0,1,.155,5.563,8.355,8.355,0,0,1-5.543,5.843c-.457.169-.931.291-1.457.453.149.194.271.362.4.521q3.269,3.91,6.543,7.816c.224.267.459.518.288.971a5.114,5.114,0,0,1-.513.048c-2.095,0-4.189-.006-6.284.01a1,1,0,0,1-.864-.419c-2.254-2.766-4.528-5.517-6.776-8.288a1.289,1.289,0,0,0-1.13-.543c-2.094.027-4.189.01-6.284.013C441.665,744.35,441.437,744.369,441.143,744.383Zm.029-5.526c.2.014.327.03.453.03q6.053,0,12.1-.005a6.364,6.364,0,0,0,1.27-.139,3,3,0,0,0,2.5-2.574,3.239,3.239,0,0,0-2.817-3.93,7.933,7.933,0,0,0-1.147-.092q-5.86-.01-11.721,0c-.207,0-.414.021-.646.034Z" transform="translate(-522.475 -20.572)" fill="#a0a0a0"/>
    <path id="Path_741" data-name="Path 741" d="M709.4,732.528c-.253-.1-.43-.171-.6-.249a30.274,30.274,0,0,0-10-2.57,28.57,28.57,0,0,0-5.885.032,14.739,14.739,0,0,0-2.305.51,3.05,3.05,0,0,0-1.053.585,1.808,1.808,0,0,0,.027,2.844,3.737,3.737,0,0,0,1.371.649,17.92,17.92,0,0,0,2.4.375c2.783.283,5.571.524,8.354.816a16.517,16.517,0,0,1,4.657,1.11,8.384,8.384,0,0,1,2.5,1.537,6.166,6.166,0,0,1,1.995,4.242,7.674,7.674,0,0,1-3.952,7.626,14.264,14.264,0,0,1-5.356,1.848,29.191,29.191,0,0,1-15.53-1.777c-.985-.4-1.908-.951-2.858-1.436a.556.556,0,0,1-.368-.539c.011-1.922.006-3.844.006-5.832a2.731,2.731,0,0,1,.429.161,27.85,27.85,0,0,0,10.392,3.632,23.329,23.329,0,0,0,7.781-.082,5.367,5.367,0,0,0,2.189-.86,2.085,2.085,0,0,0,.9-2.233,1.725,1.725,0,0,0-1.078-1.341,7.8,7.8,0,0,0-1.96-.547c-1.887-.218-3.786-.342-5.677-.531a40.914,40.914,0,0,1-6.785-.9,14.5,14.5,0,0,1-2.75-1.026c-2.946-1.5-3.961-4.116-3.648-7.138a7.158,7.158,0,0,1,3.216-5.236,13.581,13.581,0,0,1,5.186-2.1,27.235,27.235,0,0,1,6.957-.362,30.048,30.048,0,0,1,8.719,1.642c.8.287,1.582.643,2.38.946a.569.569,0,0,1,.4.633c-.013,1.752-.006,3.5-.008,5.255C709.436,732.289,709.418,732.371,709.4,732.528Z" transform="translate(-704.11 -18.458)" fill="#a0a0a0"/>
    <path id="Path_742" data-name="Path 742" d="M33.426,742.3c.162.084.329.162.489.254a27.911,27.911,0,0,0,14.637,3.793,14.217,14.217,0,0,0,3.869-.473,7.368,7.368,0,0,0,1.528-.639,2.088,2.088,0,0,0-.381-3.843,9.727,9.727,0,0,0-2.7-.5c-3.147-.3-6.3-.575-9.439-.915a13.233,13.233,0,0,1-4.415-1.26,6.4,6.4,0,0,1-3.695-4.26,7.386,7.386,0,0,1,2.755-8.089,13.313,13.313,0,0,1,5.449-2.283,28,28,0,0,1,7.342-.336,29.265,29.265,0,0,1,7.909,1.484c.927.32,1.831.708,2.744,1.069.222.087.413.183.411.492-.011,1.878-.005,3.756-.005,5.7-.21-.073-.368-.114-.514-.181a31.321,31.321,0,0,0-14.923-2.681,19.127,19.127,0,0,0-3.026.494,3.614,3.614,0,0,0-1.262.6,1.849,1.849,0,0,0,.051,3.089,3.94,3.94,0,0,0,1.792.651c1.59.193,3.184.344,4.777.517,2.335.254,4.674.481,7,.783a11.734,11.734,0,0,1,3.717,1.157,6.3,6.3,0,0,1,3.6,4.18A7.741,7.741,0,0,1,58.2,749.51a12.772,12.772,0,0,1-5.344,2.213,28.729,28.729,0,0,1-17.807-2.289c-.481-.228-.932-.52-1.4-.781a.529.529,0,0,1-.323-.5c.011-1.9.011-3.8.018-5.7C33.348,742.411,33.384,742.377,33.426,742.3Z" transform="translate(-228.213 -18.451)" fill="#a0a0a0"/>
    <path id="Path_743" data-name="Path 743" d="M180.353,747.965V753.5H155.2V726.621c.46-.132,24.239-.177,25.149-.045v5.465H161.5a29.032,29.032,0,0,0-.015,4.987h18.581c.013,1.839,0,3.623.006,5.5-.907.021-1.776.008-2.644.01-.9,0-1.8,0-2.693,0h-13.3v5.428Z" transform="translate(-317.718 -20.531)" fill="#a0a0a0"/>
    <path id="Path_744" data-name="Path 744" d="M810.138,753.5h-6.6V726.633a51.8,51.8,0,0,1,6.6-.046V736.7h16.433V726.532c2.019-.033,3.995-.006,5.938-.016l.078.078c.014.015.039.03.04.047.013.17.03.34.03.51q0,13.074-.01,26.148a.844.844,0,0,1-.067.209h-6V743.019c-.543-.142-15.084-.2-16.4-.072a19.664,19.664,0,0,0-.038,2.07c-.01.7,0,1.41,0,2.115V753.5Z" transform="translate(-792.771 -20.536)" fill="#a0a0a0"/>
    <path id="Path_745" data-name="Path 745" d="M557.641,726.672H564.1v.772q0,6.441,0,12.882a11.19,11.19,0,0,0,.374,2.979,6.932,6.932,0,0,0,6.04,5.17,11.066,11.066,0,0,0,3.7-.115,6.894,6.894,0,0,0,5.606-5.7,12.577,12.577,0,0,0,.2-2.228c.018-4.315.009-8.631.009-12.947v-.8h6.5v.657q0,6.506,0,13.011a16.721,16.721,0,0,1-.757,5.111,11.882,11.882,0,0,1-8,8.1,17.714,17.714,0,0,1-11.643-.127,12.083,12.083,0,0,1-7.954-8.86,18.315,18.315,0,0,1-.562-4.694q0-6.345,0-12.69C557.614,727.044,557.628,726.9,557.641,726.672Z" transform="translate(-612.577 -20.66)" fill="#a0a0a0"/>
    <path id="Path_746" data-name="Path 746" d="M-87.133,748.441v0c.32,0,.643.024.96,0a1.135,1.135,0,0,0,1.2-1.286,9.684,9.684,0,0,0-.153-1.846,10.828,10.828,0,0,0-5.425-7.553,10.729,10.729,0,0,0-5.511-1.435c-.919,0-1.178.2-1.3,1.128a6.4,6.4,0,0,0,0,1.589c.112.895.388,1.118,1.27,1.224.381.046.763.1,1.138.177a7.025,7.025,0,0,1,5.46,5.929c.065.378.12.758.2,1.134a1.117,1.117,0,0,0,1.078.932A10.475,10.475,0,0,0-87.133,748.441Z" transform="translate(-132.624 -27.729)" fill="#a0a0a0"/>
    <path id="Path_747" data-name="Path 747" d="M-87.133,748.441a10.475,10.475,0,0,1-1.088-.007A1.117,1.117,0,0,1-89.3,747.5c-.077-.376-.132-.756-.2-1.134a7.025,7.025,0,0,0-5.46-5.929c-.375-.081-.757-.132-1.138-.177-.883-.106-1.158-.329-1.27-1.224a6.4,6.4,0,0,1,0-1.589c.118-.931.377-1.124,1.3-1.128a10.729,10.729,0,0,1,5.511,1.435,10.828,10.828,0,0,1,5.425,7.553,9.684,9.684,0,0,1,.153,1.846,1.135,1.135,0,0,1-1.2,1.286c-.318.028-.64,0-.96,0Z" transform="translate(-132.624 -27.729)" fill="#a0a0a0"/>
  </g>
</svg>
